<?xml version="1.0" encoding="UTF-8" standalone="no"?>
<!-- Created with Inkscape (http://www.inkscape.org/) -->

<svg
   xmlns:dc="http://purl.org/dc/elements/1.1/"
   xmlns:cc="http://creativecommons.org/ns#"
   xmlns:rdf="http://www.w3.org/1999/02/22-rdf-syntax-ns#"
   xmlns:svg="http://www.w3.org/2000/svg"
   xmlns="http://www.w3.org/2000/svg"
   xmlns:sodipodi="http://sodipodi.sourceforge.net/DTD/sodipodi-0.dtd"
   xmlns:inkscape="http://www.inkscape.org/namespaces/inkscape"
   width="512"
   height="481.10345"
   id="svg2"
   version="1.1"
   inkscape:version="0.48.1 "
   sodipodi:docname="sample2.svg">
  <title
     id="title3883">Sample</title>
  <defs
     id="defs4" />
  <sodipodi:namedview
     id="base"
     pagecolor="#ffffff"
     bordercolor="#666666"
     borderopacity="1.0"
     inkscape:pageopacity="0.0"
     inkscape:pageshadow="2"
     inkscape:zoom="0.49497475"
     inkscape:cx="3.0831487"
     inkscape:cy="205.5284"
     inkscape:document-units="px"
     inkscape:current-layer="layer1"
     showgrid="false"
     fit-margin-top="0"
     fit-margin-left="0"
     fit-margin-right="0"
     fit-margin-bottom="0"
     inkscape:window-width="1366"
     inkscape:window-height="706"
     inkscape:window-x="-8"
     inkscape:window-y="-8"
     inkscape:window-maximized="1" />
  <metadata
     id="metadata7">
    <rdf:RDF>
      <cc:Work
         rdf:about="">
        <dc:format>image/svg+xml</dc:format>
        <dc:type
           rdf:resource="http://purl.org/dc/dcmitype/StillImage" />
        <dc:title>Sample</dc:title>
        <dc:creator>
          <cc:Agent>
            <dc:title>Benjamin Pavie</dc:title>
          </cc:Agent>
        </dc:creator>
        <cc:license
           rdf:resource="http://creativecommons.org/licenses/publicdomain/" />
        <dc:subject>
          <rdf:Bag>
            <rdf:li>sample</rdf:li>
            <rdf:li>icon</rdf:li>
            <rdf:li>tube</rdf:li>
          </rdf:Bag>
        </dc:subject>
      </cc:Work>
      <cc:License
         rdf:about="http://creativecommons.org/licenses/publicdomain/">
        <cc:permits
           rdf:resource="http://creativecommons.org/ns#Reproduction" />
        <cc:permits
           rdf:resource="http://creativecommons.org/ns#Distribution" />
        <cc:permits
           rdf:resource="http://creativecommons.org/ns#DerivativeWorks" />
      </cc:License>
    </rdf:RDF>
  </metadata>
  <g
     inkscape:label="Layer 1"
     inkscape:groupmode="layer"
     id="layer1"
     transform="translate(-379.90478,129.88361)">
    <g
       id="g3878"
       transform="matrix(1.9595329,0,0,1.9595329,-358.53111,-343.00697)">
      <path
         sodipodi:nodetypes="csscsssssccsscssss"
         inkscape:connector-curvature="0"
         id="path2996-3"
         d="m 602.26855,307.73521 c -21.01004,-4.90525 -28.33151,-30.16059 -16.1433,-55.68617 5.51116,-11.54192 16.06109,-24.7692 26.93463,-33.77004 l 3.81411,-3.15723 0.10838,4.3327 c 0.17253,6.89899 2.77306,15.33337 9.08315,29.46003 3.2323,7.2363 6.64976,16.15681 7.59434,19.82336 2.16788,8.41505 1.80134,18.23467 -0.88823,23.79493 -2.40432,4.97058 -8.61083,11.01876 -13.55864,13.21276 -4.48134,1.98715 -12.78093,2.96172 -16.94442,1.98966 z m 4.26266,-43.31313 c 1.50823,-1.7387 1.88387,-4.03507 1.99019,-12.16602 l 0.13106,-10.02276 -2.45149,1.92358 c -5.09868,4.00074 -9.09075,12.80783 -7.71381,17.01782 0.85064,2.60085 3.47743,5.44911 4.99517,5.41632 0.65436,-0.0141 2.02636,-0.99015 3.04888,-2.16894 z"
         style="fill:#01b7ef;fill-opacity:1" />
      <path
         sodipodi:nodetypes="ssscccccccccccssssscsssss"
         inkscape:connector-curvature="0"
         id="path2996-8-2"
         d="m 417.86017,350.53746 c -25.14062,-4.37573 -42.67975,-30.78402 -36.82252,-55.44285 3.08841,-13.00217 2.45038,-12.24593 69.57583,-82.46403 l 63.21703,-66.12959 8.96339,8.54454 8.96337,8.54454 -36.43961,38.05869 -36.4396,38.05869 30.47974,-0.65836 30.47973,-0.65835 21.54232,-22.47681 21.54232,-22.4768 8.92921,8.59147 8.92921,8.59147 -63.34611,65.97811 c -58.11675,60.53148 -63.87714,66.24106 -69.77883,69.16326 -9.96907,4.93617 -19.81115,6.5138 -29.79548,4.77602 z M 596.01763,198.8451 c -1.67199,-1.00023 -18.7834,-16.97282 -38.02536,-35.49462 l -34.98539,-33.67602 -0.11039,-5.11084 c -0.0866,-4.01056 0.42074,-5.77047 2.35675,-8.17481 3.25309,-4.04007 8.27674,-5.83067 12.62354,-4.49948 4.72772,1.44786 74.90698,68.78938 76.27189,73.18781 3.28105,10.57316 -8.50764,19.525 -18.13104,13.76796 z"
         style="fill:#292929;fill-opacity:1" />
      <path
         sodipodi:nodetypes="ccccc"
         inkscape:connector-curvature="0"
         id="path2996-8-6-3"
         d="m 399.08303,300.78848 c -3.21763,20.75379 8.74102,34.83563 31.33999,31.76388 2.32642,-2.44572 29.24999,-30.55456 89.75337,-94.01272 -30.44082,0.65752 -30.07506,-0.67191 -60.51588,-0.0144 -60.93138,63.13452 -62.13763,62.67767 -60.57748,62.26324 z"
         style="fill:#01b7ef;fill-opacity:1" />
    </g>
  </g>
</svg>
